<?xml version="1.0" encoding="UTF-8" standalone="no"?> <svg width="24" height="24" viewBox="0 0 24 24" fill="none" xmlns="http://www.w3.org/2000/svg">
<path fill-rule="evenodd" clip-rule="evenodd" d="M12 3C7.02944 3 3 7.02944 3 12C3 14.8074 4.28426 17.3141 6.30112 18.9662C6.72836 19.3162 6.791 19.9463 6.44102 20.3735C6.09105 20.8007 5.46099 20.8634 5.03375 20.5134C2.57305 18.4977 1 15.4322 1 12C1 5.92487 5.92487 1 12 1C18.0751 1 23 5.92487 23 12C23 15.4322 21.4269 18.4977 18.9663 20.5134C18.539 20.8634 17.909 20.8007 17.559 20.3735C17.209 19.9463 17.2716 19.3162 17.6989 18.9662C19.7157 17.3141 21 14.8074 21 12C21 7.02944 16.9706 3 12 3ZM12 7C9.23858 7 7 9.23858 7 12C7 13.5595 7.7128 14.9517 8.83415 15.8703C9.26139 16.2203 9.32402 16.8503 8.97405 17.2776C8.62407 17.7048 7.99401 17.7674 7.56677 17.4175C6.00159 16.1354 5 14.1842 5 12C5 8.13401 8.13401 5 12 5C15.866 5 19 8.13401 19 12C19 14.1842 17.9984 16.1354 16.4332 17.4175C16.006 17.7674 15.3759 17.7048 15.026 17.2776C14.676 16.8503 14.7386 16.2203 15.1659 15.8703C16.2872 14.9517 17 13.5595 17 12C17 9.23858 14.7614 7 12 7ZM12 11C11.4477 11 11 11.4477 11 12C11 12.5523 11.4477 13 12 13C12.5523 13 13 12.5523 13 12C13 11.4477 12.5523 11 12 11ZM9 12C9 10.3431 10.3431 9 12 9C13.6569 9 15 10.3431 15 12C15 13.6569 13.6569 15 12 15C10.3431 15 9 13.6569 9 12ZM12 17C12.3148 17 12.6111 17.1482 12.8 17.4L15.8 21.4C16.0273 21.703 16.0638 22.1084 15.8944 22.4472C15.725 22.786 15.3788 23 15 23H9C8.62123 23 8.27496 22.786 8.10557 22.4472C7.93618 22.1084 7.97274 21.703 8.2 21.4L11.2 17.4C11.3889 17.1482 11.6852 17 12 17ZM11 21H13L12 19.6667L11 21Z" fill="#293644"/>
</svg>
